<svg xmlns="http://www.w3.org/2000/svg" xmlns:xlink="http://www.w3.org/1999/xlink" width="263" height="98" viewBox="0 0 263 98"><defs><path id="a" d="M1284.84 1496c10.96 0 20.16 8.95 20.16 20 0 11.04-9.2 20-20.16 20a19.92 19.92 0 0 1-19.84-20c0-11.05 8.88-20 19.84-20zm-18.85 20c0 10.62 8.38 19 19 19 10.63 0 19.01-8.38 19.01-19 0-10.63-8.38-19-19-19-10.63 0-19.01 8.37-19.01 19zm22.02-6.48h-1.9c-1.29 0-1.26 1.05-1.26 1.05v2.84h3.62l-.64 2.16h-3v9.5h-2.71v-9.5h-2.7l-.02-2.16h2.72v-2.76c0-4.01 4-3.73 4-3.73h1.9z"/><path id="b" d="M1340 1496a20 20 0 1 1 0 40 20 20 0 0 1 0-40zm-18.99 20a19 19 0 1 0 38 0 19 19 0 0 0-38 0zm25.56-2.99l.01.45c0 4.53-3.47 9.76-9.81 9.76a9.8 9.8 0 0 1-5.3-1.54 6.95 6.95 0 0 0 5.1-1.42 3.45 3.45 0 0 1-3.2-2.39 3.36 3.36 0 0 0 1.55-.05 3.44 3.44 0 0 1-2.77-3.37v-.04c.47.25 1 .4 1.57.43a3.42 3.42 0 0 1-1.07-4.58 9.82 9.82 0 0 0 7.11 3.58 3.44 3.44 0 0 1 5.88-3.13 6.98 6.98 0 0 0 2.19-.83c-.26.8-.8 1.47-1.52 1.9.7-.09 1.37-.27 1.99-.54a6.99 6.99 0 0 1-1.73 1.77z"/><path id="c" d="M1394.99 1496a20 20 0 1 1 0 40 20 20 0 0 1 0-40zm-19 20a19 19 0 1 0 38 0 19 19 0 0 0-38 0zm21.43 5.04c.03 2.16-2.2 4.05-5.78 4.05-3.13 0-5.76-1.42-5.76-3.45 0-3.07 2.18-4.06 5.31-4.06h.98c-.43-.42-.77-.78-.77-1.4 0-.38.11-.74.28-1.05l-.52.02c-2.58 0-4.08-1.8-4.08-4.06 0-2.22 2.29-4.2 5.02-4.2h5.4l-1.2 1.24h-1.42c1 .56 1.53 1.74 1.53 3.03 0 1.19-.66 2.15-1.6 2.87-.9.71-1.08 1-1.08 1.61 0 .52 1.1 1.28 1.6 1.65 1.74 1.3 2.06 2.12 2.09 3.75zm-5.22-6.8c1.38.04 2.18-1.06 1.94-2.86-.24-1.8-1.14-3.15-2.52-3.19-1.38-.04-2.59 1.21-2.35 3.01.24 1.8 1.55 3 2.93 3.05zm3.25 7c0-.18 0-.36-.07-.51-.7-1.72-2.92-1.72-3.66-1.72-2 0-3.65.74-3.65 2.15 0 1.43 1.25 2.11 3.29 2.11 2.86 0 4.09-.6 4.09-2.04zm8.63-10.7h-1.82v1.82h-1.82v-1.82h-1.81v-1.81h1.81v-1.82h1.82v1.82h1.82z"/><path id="d" d="M1450 1496a20 20 0 1 1 0 40 20 20 0 0 1 0-40zm-18.99 20c0 10.62 8.38 19 19 19a18.83 18.83 0 0 0 18.98-19c0-10.63-8.37-19-18.99-19a18.83 18.83 0 0 0-18.99 19zm20.42 3.86c-1.17 0-2.26-.45-2.64-1.14l-.76 2.87c-.47 1.64-1.84 3.28-1.95 3.4-.07.1-.24.07-.25-.05-.03-.21-.38-2.28.03-3.96l1.38-5.86s-.34-.49-.34-1.47c0-1.55.93-2.6 2.09-2.6.98 0 1.45.61 1.45 1.47 0 .95-.63 2.38-.95 3.7-.27 1.1.57 1.9 1.7 1.9 2.04 0 3.42-2.43 3.42-5.44 0-2.28-1.6-4.05-4.49-4.05-3.27 0-5.2 2.16-5.2 5.17 0 .91.28 1.43.71 1.92.2.23.23.32.16.58-.06.2-.28.66-.33.84-.08.27-.3.36-.54.26-1.51-.6-2.21-2.19-2.21-3.98 0-2.96 2.58-6.51 7.7-6.51 4.13 0 6.84 2.88 6.84 5.97 0 4.09-2.35 6.98-5.82 6.98z"/><path id="e" d="M1505 1496a20 20 0 1 1 0 40 20 20 0 0 1 0-40zm-18.99 20c0 10.62 8.38 19 19 19a18.83 18.83 0 0 0 18.98-19c0-10.63-8.37-19-18.99-19a18.83 18.83 0 0 0-18.99 19z"/><path id="f" d="M1284.84 1551c10.96 0 20.16 8.95 20.16 20 0 11.04-9.2 20-20.16 20a19.92 19.92 0 0 1-19.84-20c0-11.05 8.88-20 19.84-20zm-18.85 20c0 10.62 8.38 19 19 19 10.63 0 19.01-8.38 19.01-19 0-10.63-8.38-19-19-19-10.63 0-19.01 8.37-19.01 19z"/><path id="g" d="M1340 1551a20 20 0 1 1 0 40 20 20 0 0 1 0-40zm-18.99 20a19 19 0 1 0 38 0 19 19 0 0 0-38 0z"/><path id="h" d="M1394.99 1551a20 20 0 1 1 0 40 20 20 0 0 1 0-40zm-19 20a19 19 0 1 0 38 0 19 19 0 0 0-38 0z"/><path id="i" d="M1390.52 1564.42s1.66-.98 2.23.07c.45.31 1.62 6.79 1.85 8.07.23 1.29.83 1.76 1.21 1.21.38-.54 1.63-1.83 2.46-3.85.83-2.03-.27-2.29-.6-2.17-.35.11-2.12.15-1.48-.63.64-.77 2.23-2.18 2.64-2.33.8-.55 1.97-1.26 2.95-.1.6.47 2 2.19.64 4.72-1.36 2.53-6.69 9-6.69 9s-1.92 1.32-2.72 0c-.79-1.33-3.36-8.26-3.44-9.12-.07-.85-.3-1.09-.71-.85-.42.23-1.25 1.51-1.33 1.13-.07-.4-.83-.86-.38-1.64.46-.78 3.03-3.23 3.37-3.5z"/><path id="j" d="M1450 1551a20 20 0 1 1 0 40 20 20 0 0 1 0-40zm-18.99 20c0 10.62 8.38 19 19 19a18.83 18.83 0 0 0 18.98-19c0-10.63-8.37-19-18.99-19a18.83 18.83 0 0 0-18.99 19z"/><path id="k" d="M1505 1551a20 20 0 1 1 0 40 20 20 0 0 1 0-40zm-18.99 20c0 10.62 8.38 19 19 19a18.83 18.83 0 0 0 18.98-19c0-10.63-8.37-19-18.99-19a18.83 18.83 0 0 0-18.99 19z"/></defs><g transform="translate(-1263 -1494)"><use fill="#d1d5d8" xlink:href="#a"/></g><g transform="translate(-1263 -1494)"><use fill="#d1d5d8" xlink:href="#b"/></g><g transform="translate(-1263 -1494)"><use fill="#d1d5d8" xlink:href="#c"/></g><g transform="translate(-1263 -1494)"><use fill="#d1d5d8" xlink:href="#d"/></g><g transform="translate(-1263 -1494)"><use fill="#d1d5d8" xlink:href="#e"/><g><text fill="#d1d5d8" dominant-baseline="text-before-edge" font-family="Helvetica, Arial, sans-serif" font-size="18" font-style="none" font-weight="400" style="line-height:24px" transform="translate(1497 1508)"/></g></g><g transform="translate(-1263 -1494)"><use fill="#d1d5d8" xlink:href="#f"/><g><text fill="#d1d5d8" dominant-baseline="text-before-edge" font-family="Helvetica, Arial, sans-serif" font-size="20" font-style="none" font-weight="400" style="line-height:24px" transform="translate(1276 1562)"/></g></g><g transform="translate(-1263 -1494)"><use fill="#d1d5d8" xlink:href="#g"/><g><text fill="#d1d5d8" dominant-baseline="text-before-edge" font-family="Helvetica, Arial, sans-serif" font-size="20" font-style="none" font-weight="400" style="line-height:24px" transform="translate(1330 1563)"/></g></g><g transform="translate(-1263 -1494)"><use fill="#d1d5d8" xlink:href="#h"/><g><use fill="#d1d5d8" xlink:href="#i"/></g></g><g transform="translate(-1263 -1494)"><use fill="#d1d5d8" xlink:href="#j"/><g><text fill="#d1d5d8" dominant-baseline="text-before-edge" font-family="Helvetica, Arial, sans-serif" font-size="18" font-style="none" font-weight="400" style="line-height:24px" transform="translate(1442 1564)"/></g></g><g transform="translate(-1263 -1494)"><use fill="#d1d5d8" xlink:href="#k"/><g><text fill="#d1d5d8" dominant-baseline="text-before-edge" font-family="Helvetica, Arial, sans-serif" font-size="18" font-style="none" font-weight="400" style="line-height:24px" transform="translate(1497 1563)"/></g></g></svg>