<svg xmlns="http://www.w3.org/2000/svg" xmlns:xlink="http://www.w3.org/1999/xlink" width="275" height="89" viewBox="0 0 275 89"><defs><path id="a" d="M776 1495a11 11 0 1 1 0 22 11 11 0 0 1 0-22zm-10 11c0 5.6 4.41 10 10 10s10-4.4 10-10-4.41-10-10-10-10 4.4-10 10z"/><path id="b" d="M776 1527a11 11 0 1 1 0 22 11 11 0 0 1 0-22zm-10 11c0 5.6 4.41 10 10 10s10-4.4 10-10-4.41-10-10-10-10 4.4-10 10z"/><path id="c" d="M776 1559a11 11 0 1 1 0 22 11 11 0 0 1 0-22zm-10 11c0 5.6 4.41 10 10 10s10-4.4 10-10-4.41-10-10-10-10 4.4-10 10z"/><path id="d" d="M1026 1495a11 11 0 1 1 0 22 11 11 0 0 1 0-22zm-10 11c0 5.6 4.41 10 10 10s10-4.4 10-10-4.41-10-10-10-10 4.4-10 10z"/></defs><g transform="translate(-763 -1493)"><use fill="#a255c4" xlink:href="#a"/></g><g transform="translate(-763 -1493)"><text fill="#a255c4" dominant-baseline="text-before-edge" font-family="Helvetica, Arial, sans-serif" font-size="12" font-style="none" font-weight="400" style="line-height:20px" transform="translate(771 1501)"/></g><g transform="translate(-763 -1493)"><use fill="#a255c4" xlink:href="#b"/></g><g transform="translate(-763 -1493)"><text fill="#a255c4" dominant-baseline="text-before-edge" font-family="Helvetica, Arial, sans-serif" font-size="10" font-style="none" font-weight="400" style="line-height:20px" transform="translate(771 1534)"/></g><g transform="translate(-763 -1493)"><use fill="#a255c4" xlink:href="#c"/></g><g transform="translate(-763 -1493)"><text fill="#a255c4" dominant-baseline="text-before-edge" font-family="Helvetica, Arial, sans-serif" font-size="11" font-style="none" font-weight="400" style="line-height:20px" transform="translate(771 1564)"/></g><g transform="translate(-763 -1493)"><use fill="#a255c4" xlink:href="#d"/></g><g transform="translate(-763 -1493)"><text fill="#a255c4" dominant-baseline="text-before-edge" font-family="Helvetica, Arial, sans-serif" font-size="14" font-style="none" font-weight="400" style="line-height:31px" transform="translate(1022 1500)"/></g></svg>